<?xml version="1.0" standalone="no"?>
<!DOCTYPE svg PUBLIC "-//W3C//DTD SVG 20010904//EN"
 "http://www.w3.org/TR/2001/REC-SVG-20010904/DTD/svg10.dtd">
<svg version="1.0" xmlns="http://www.w3.org/2000/svg"
 width="300.000000pt" height="300.000000pt" viewBox="0 0 300.000000 300.000000"
 preserveAspectRatio="xMidYMid meet">
<metadata>
Created by potrace 1.10, written by Peter Selinger 2001-2011
</metadata>
<g transform="translate(0.000000,300.000000) scale(0.100000,-0.100000)"
fill="#000000" stroke="none">
<path d="M1292 2276 c-152 -158 -235 -339 -252 -544 -4 -58 -6 -111 -3 -119 9
-24 23 -14 23 17 0 36 15 39 31 8 7 -13 15 -25 18 -28 18 -15 106 -160 97
-160 -3 0 -46 34 -96 75 -98 83 -129 120 -175 213 -16 34 -36 61 -43 62 -8 0
-10 -5 -5 -12 4 -7 10 -170 13 -363 6 -379 6 -378 64 -436 l25 -25 -132 -19
c-172 -25 -254 -25 -340 3 -106 34 -108 19 -9 -53 48 -35 124 -87 168 -114 45
-28 121 -81 170 -117 149 -111 176 -118 324 -89 140 27 178 43 317 127 76 46
86 50 127 44 53 -8 81 -35 72 -70 -7 -28 8 -45 18 -20 19 51 -4 201 -55 358
-10 33 -19 62 -19 66 0 4 64 -14 143 -40 78 -26 172 -53 208 -60 59 -10 70
-10 100 6 19 9 39 24 46 33 11 15 11 89 0 108 -3 5 -8 67 -12 139 -6 110 -4
132 8 137 12 4 16 -14 21 -106 12 -236 26 -274 94 -261 55 11 181 85 241 144
60 58 84 100 95 163 7 37 5 41 -52 98 -33 32 -63 59 -66 59 -4 0 -17 9 -29 21
-12 11 -35 28 -52 36 -16 9 -32 19 -35 22 -3 4 -30 24 -60 46 -30 22 -65 50
-78 62 -29 29 -36 29 -66 -4 -17 -18 -22 -31 -16 -37 6 -6 10 -26 10 -45 1
-31 2 -33 11 -17 6 10 8 35 5 56 -8 48 12 58 51 26 16 -13 69 -51 118 -85 50
-34 125 -90 168 -124 77 -62 77 -62 73 -105 -8 -87 -114 -200 -249 -267 -74
-35 -108 -37 -123 -5 -14 27 -33 242 -35 388 -1 53 -5 92 -11 92 -6 0 -7 -7
-4 -16 4 -11 1 -14 -12 -12 -13 2 -18 15 -19 58 -7 147 -13 179 -42 199 -28
20 -28 20 -133 -5 -10 -2 -27 -6 -38 -8 -11 -3 -24 -7 -29 -10 -5 -3 -25 -8
-44 -11 -36 -6 -61 10 -30 19 22 6 104 20 120 21 17 0 73 44 73 56 0 6 -4 7
-10 4 -5 -3 -10 -2 -10 4 0 14 -38 53 -75 76 -16 10 -34 22 -40 26 -37 30
-117 97 -158 132 -27 23 -55 46 -63 50 -14 8 -39 47 -30 47 2 0 11 -6 18 -13
42 -40 135 -113 218 -170 52 -36 142 -109 199 -162 58 -53 128 -112 155 -130
64 -42 162 -111 201 -141 17 -13 43 -34 59 -46 16 -13 43 -35 60 -49 17 -14
42 -34 55 -45 69 -54 81 -71 81 -119 0 -26 -9 -63 -21 -86 -22 -45 -197 -222
-244 -248 -24 -13 -57 -16 -170 -15 -108 1 -125 -1 -75 -6 36 -4 96 -8 135 -9
l70 -1 -47 -33 c-120 -86 -242 -117 -435 -113 -73 2 -133 0 -133 -4 0 -14 45
-20 162 -20 125 0 224 16 302 50 46 19 179 108 221 147 11 10 42 36 69 58 71
57 174 182 187 226 7 21 9 56 5 82 -6 38 -13 49 -54 77 -26 19 -65 50 -87 69
-47 43 -200 157 -303 228 -40 27 -127 99 -195 160 -67 60 -162 136 -211 169
-50 32 -113 79 -140 104 -28 25 -82 68 -121 95 -38 26 -79 56 -90 66 -11 9
-37 24 -57 32 l-37 15 -79 -82z m151 22 c18 -12 46 -33 62 -47 17 -14 42 -34
55 -44 14 -10 -10 1 -52 24 -43 22 -78 36 -78 30 0 -6 -13 -11 -30 -11 -24 0
-36 -10 -68 -52 -21 -29 -47 -74 -56 -101 -10 -26 -22 -45 -27 -41 -5 3 -9 -2
-9 -11 0 -8 -4 -23 -9 -33 -40 -79 -70 -169 -81 -244 -14 -97 -6 -142 30 -168
31 -22 99 -27 117 -9 6 6 17 8 23 4 8 -5 -4 -16 -33 -30 -61 -29 -77 -43 -76
-69 0 -20 0 -20 8 -1 12 27 143 96 276 143 101 36 367 115 474 140 55 13 88 2
101 -34 11 -27 24 -236 36 -541 7 -205 11 -195 -76 -206 -26 -4 -37 -3 -25 2
14 6 5 9 -35 14 -30 3 -113 24 -185 46 -71 23 -137 41 -146 41 -9 0 -35 24
-58 54 -39 51 -91 95 -182 157 -106 71 -180 133 -175 145 3 8 1 14 -3 14 -5 0
-30 35 -57 78 -26 42 -57 91 -70 108 -30 41 -33 127 -8 209 10 33 19 62 19 65
12 50 29 92 40 104 8 8 15 22 15 30 0 9 5 16 10 16 6 0 10 5 10 11 0 17 67
106 129 172 61 64 84 70 134 35z m61 -84 c28 -14 85 -56 126 -93 41 -37 129
-111 195 -165 66 -54 121 -104 123 -112 2 -8 -8 -16 -25 -20 -63 -13 -213 -59
-303 -91 -237 -85 -231 -83 -224 -94 3 -5 -2 -6 -10 -3 -8 3 -40 -6 -71 -20
-42 -19 -62 -23 -79 -16 -13 5 -26 7 -28 4 -3 -2 -13 5 -24 17 -35 39 -19 189
33 309 57 128 120 246 149 277 39 41 68 42 138 7z m270 -463 c7 -11 -9 -18
-68 -26 -25 -4 -46 -12 -46 -17 0 -5 -8 -8 -17 -7 -10 2 -28 -2 -40 -9 -12 -7
-29 -9 -38 -5 -14 5 -10 9 15 19 18 8 43 14 56 14 13 0 24 4 24 10 0 5 6 7 13
5 6 -3 23 1 37 9 30 17 57 20 64 7z m-827 -88 c4 -10 17 -29 30 -43 32 -35 29
-49 -4 -19 -26 22 -26 22 2 -10 47 -53 105 -105 170 -153 33 -25 96 -76 141
-114 44 -38 113 -94 152 -124 81 -63 123 -125 146 -216 22 -85 21 -134 -1
-134 -36 0 -120 60 -174 122 -86 99 -96 115 -103 163 -4 24 -12 48 -18 51 -10
7 -8 -15 8 -68 3 -10 2 -18 -3 -18 -11 0 -107 126 -139 184 -14 25 -28 46 -31
46 -5 0 4 -35 17 -65 48 -111 90 -192 103 -204 9 -7 1 13 -18 45 -39 65 -48
107 -12 59 12 -16 48 -57 80 -90 32 -33 72 -78 89 -100 43 -56 130 -124 173
-136 49 -14 65 0 60 54 -12 154 -68 259 -177 333 -24 16 -45 31 -48 34 -3 3
-17 15 -32 27 -57 43 -100 84 -94 90 3 3 23 -9 44 -28 55 -48 76 -64 92 -72
90 -42 189 -148 228 -246 32 -79 59 -201 54 -243 l-4 -35 -36 13 c-54 19 -75
17 -116 -11 -20 -14 -39 -25 -41 -25 -3 0 -28 -15 -57 -33 -96 -61 -199 -93
-326 -103 -67 -6 -89 -4 -122 11 -22 10 -40 22 -40 27 0 5 14 1 32 -8 55 -28
193 -9 306 43 19 8 32 17 29 19 -2 2 -24 -5 -49 -16 -66 -29 -156 -50 -214
-50 -56 0 -44 -6 -236 127 -60 41 -108 71 -108 66 0 -4 41 -35 91 -67 50 -32
96 -64 102 -71 7 -6 21 -15 32 -19 13 -6 16 -10 7 -13 -7 -3 -27 7 -45 21 -18
15 -97 70 -177 123 -80 53 -156 105 -170 115 l-25 20 29 -8 c16 -4 39 -17 50
-29 21 -23 96 -71 96 -62 0 3 -22 19 -50 36 -27 17 -50 32 -50 33 0 2 42 3 92
3 51 0 150 6 219 13 l126 13 59 -33 c101 -57 244 -108 244 -88 0 4 -14 10 -31
14 -18 3 -84 32 -148 63 -64 31 -126 56 -138 57 -25 0 -29 6 -12 23 7 7 3 19
-14 39 -55 66 -55 66 -60 502 -2 168 3 209 20 165z m593 13 c0 -2 -7 -7 -16
-10 -8 -3 -12 -2 -9 4 6 10 25 14 25 6z m-70 -25 c0 -5 -9 -11 -19 -14 -14 -3
-18 -1 -14 9 6 15 33 19 33 5z m-110 -41 c0 -5 -7 -10 -16 -10 -8 0 -12 5 -9
10 3 6 10 10 16 10 5 0 9 -4 9 -10z m-320 -47 c14 -9 30 -22 35 -29 6 -6 42
-36 82 -67 73 -58 107 -93 59 -62 -14 10 -26 21 -26 25 0 4 -11 12 -24 18 -26
12 -52 31 -95 72 -15 14 -38 33 -51 42 -14 9 -20 17 -15 17 6 1 22 -7 35 -16z
m1095 -98 c0 -46 -19 -76 -22 -35 -1 11 2 18 8 15 5 -4 9 -2 9 4 0 5 -4 11 -8
13 -5 2 -12 15 -15 30 -6 21 -4 26 11 24 13 -2 17 -13 17 -51z"/>
<path d="M2020 1745 c0 -8 5 -15 10 -15 6 0 10 7 10 15 0 8 -4 15 -10 15 -5 0
-10 -7 -10 -15z"/>
<path d="M1916 1689 c-70 -83 -22 -153 53 -78 42 41 50 60 40 87 -13 34 -61
30 -93 -9z m72 -6 c4 -24 -62 -98 -78 -88 -19 12 -10 53 20 85 32 34 53 35 58
3z"/>
<path d="M1250 1489 c0 -14 7 -34 15 -45 13 -17 14 -17 15 -1 0 9 -5 17 -11
17 -5 0 -7 4 -4 10 3 5 1 18 -4 27 -9 16 -10 15 -11 -8z"/>
<path d="M1620 1151 c0 -4 21 -14 48 -21 26 -6 110 -31 187 -55 119 -36 147
-42 188 -35 72 11 68 20 -9 21 -38 0 -76 2 -84 4 -100 26 -140 39 -140 45 0 5
-8 7 -17 5 -10 -1 -23 2 -29 7 -7 5 -16 8 -20 7 -5 -1 -16 0 -24 3 -84 29
-100 32 -100 19z"/>
<path d="M1348 2138 c-53 -93 -64 -117 -104 -225 -38 -104 -56 -234 -37 -268
8 -14 10 -2 10 46 0 71 6 126 16 136 4 3 7 12 7 19 0 7 5 25 12 41 6 15 10 34
9 41 -1 6 3 12 9 12 5 0 10 14 10 30 0 17 9 39 20 50 11 11 20 27 20 35 0 8 4
15 8 15 5 0 15 16 22 35 8 20 20 41 27 47 7 5 10 14 7 19 -3 5 0 9 5 9 6 0 11
5 11 10 0 24 -18 5 -52 -52z"/>
<path d="M1680 1925 c-17 -21 -5 -43 36 -65 42 -24 75 -30 96 -19 29 16 21 45
-19 69 -52 30 -95 36 -113 15z m102 -26 c26 -19 28 -23 15 -36 -13 -13 -20
-12 -61 6 -25 12 -46 25 -46 30 0 28 52 28 92 0z"/>
<path d="M1876 1862 c-3 -5 6 -12 20 -15 15 -3 23 0 21 7 -5 14 -33 20 -41 8z"/>
<path d="M941 1574 c0 -11 3 -14 6 -6 3 7 2 16 -1 19 -3 4 -6 -2 -5 -13z"/>
<path d="M954 1380 c0 -85 2 -120 3 -77 2 42 2 112 0 155 -1 42 -3 7 -3 -78z"/>
<path d="M1000 1499 c7 -11 9 -23 7 -26 -9 -9 62 -139 90 -164 30 -28 25 -16
-28 61 -21 30 -41 69 -44 85 -12 55 -16 65 -26 65 -6 0 -5 -8 1 -21z"/>
<path d="M958 1124 c2 -24 11 -49 20 -56 13 -11 14 -10 4 9 -7 12 -12 35 -12
52 0 16 -3 32 -7 34 -5 3 -6 -15 -5 -39z"/>
<path d="M990 1046 c0 -2 8 -10 18 -17 15 -13 16 -12 3 4 -13 16 -21 21 -21
13z"/>
<path d="M1145 1041 c6 -11 157 -71 176 -71 7 0 22 -8 33 -17 l21 -17 -20 22
c-12 12 -31 24 -44 27 -13 2 -40 10 -60 16 -31 11 -33 13 -16 20 16 6 14 8
-12 8 -17 1 -43 5 -58 11 -15 6 -24 6 -20 1z"/>
<path d="M1030 1013 c1 -9 91 -66 95 -61 2 2 -19 18 -46 36 -27 18 -49 29 -49
25z"/>
<path d="M1160 935 c14 -8 30 -14 35 -14 6 0 -1 6 -15 14 -14 8 -29 14 -35 14
-5 0 1 -6 15 -14z"/>
<path d="M1240 905 c46 -18 64 -17 25 0 -16 8 -37 14 -45 14 -8 0 1 -7 20 -14z"/>
<path d="M1300 894 c0 -7 71 -36 76 -31 2 2 -14 11 -36 20 -22 8 -40 13 -40
11z"/>
<path d="M715 845 c22 -14 51 -25 65 -24 l25 1 -25 7 c-14 5 -40 15 -57 24
-48 25 -53 20 -8 -8z"/>
<path d="M1080 825 c33 -19 50 -18 26 0 -11 8 -27 15 -35 15 -10 -1 -7 -6 9
-15z"/>
<path d="M871 826 c4 -4 169 -66 177 -66 2 0 1 4 -2 9 -9 13 66 22 104 11 51
-13 148 -20 168 -12 23 9 -154 33 -239 32 -36 -1 -96 6 -133 14 -71 17 -82 19
-75 12z"/>
<path d="M814 813 c10 -11 36 -12 36 -2 0 5 -10 9 -22 9 -12 0 -18 -3 -14 -7z"/>
<path d="M1061 756 c2 -2 27 -6 54 -9 32 -4 43 -3 30 3 -19 8 -93 14 -84 6z"/>
<path d="M1217 734 c-15 -8 -33 -14 -40 -13 -6 1 -25 -3 -40 -9 -16 -7 -35
-12 -43 -12 -8 0 -12 -5 -9 -10 8 -13 45 -4 117 27 32 14 67 23 78 20 11 -3
18 -1 14 4 -8 13 -45 10 -77 -7z"/>
<path d="M2170 1651 c0 -5 7 -15 17 -22 15 -13 15 -12 4 9 -12 23 -21 28 -21
13z"/>
<path d="M2206 1574 c-20 -19 -20 -24 0 -52 24 -35 50 -45 68 -26 23 22 20 41
-10 69 -32 29 -37 30 -58 9z m58 -37 c18 -28 -13 -41 -36 -15 -10 12 -18 25
-18 30 0 16 42 4 54 -15z"/>
<path d="M2518 1353 c-8 -10 -24 -34 -36 -54 -12 -20 -41 -52 -64 -70 -23 -19
-50 -42 -60 -51 -10 -10 -39 -28 -65 -40 -27 -12 -52 -28 -56 -35 -5 -7 -12
-11 -18 -8 -5 4 -9 1 -9 -4 0 -18 11 -13 95 36 89 51 178 135 213 201 25 45
25 53 0 25z"/>
</g>
</svg>
